<?xml version="1.0" encoding="utf-8"?>
<!-- Generator: Adobe Illustrator 17.1.0, SVG Export Plug-In . SVG Version: 6.00 Build 0)  -->
<!DOCTYPE svg PUBLIC "-//W3C//DTD SVG 1.1//EN" "http://www.w3.org/Graphics/SVG/1.1/DTD/svg11.dtd">
<svg version="1.1" id="Layer_1" xmlns="http://www.w3.org/2000/svg" xmlns:xlink="http://www.w3.org/1999/xlink" x="0px" y="0px"
	 viewBox="0 0 13.5 25.1" enable-background="new 0 0 13.5 25.1" xml:space="preserve">
<path fill-rule="evenodd" clip-rule="evenodd" fill="#CCCCCC" stroke="#CCCCCC" stroke-miterlimit="10" d="M1.7,12.6
	C3.9,14.8,6,16.8,8,18.8c1.6,1.6,3.2,3.2,4.8,4.8c0.3,0.3,0.3,0.9,0.4,1.4c-0.5-0.1-1.1,0-1.4-0.3C8,21,4.3,17.3,0.5,13.5
	c-0.7-0.7-0.7-1.3,0-2C4.3,7.9,8,4.1,11.7,0.4c0.3-0.3,1.1-0.6,1.4-0.4c0.7,0.5,0.1,1.1-0.3,1.5C9.2,5.2,5.5,8.8,1.7,12.6z"/>
</svg>
