<?xml version="1.0" encoding="utf-8"?>
<!-- Generator: Adobe Illustrator 17.1.0, SVG Export Plug-In . SVG Version: 6.00 Build 0)  -->
<!DOCTYPE svg PUBLIC "-//W3C//DTD SVG 1.1//EN" "http://www.w3.org/Graphics/SVG/1.1/DTD/svg11.dtd">
<svg version="1.1" id="Layer_1" xmlns="http://www.w3.org/2000/svg" xmlns:xlink="http://www.w3.org/1999/xlink" x="0px" y="0px"
	 viewBox="0 0 60 60" enable-background="new 0 0 60 60" xml:space="preserve">
<path fill="#FFFFFF" d="M30,0C13.4,0,0,13.4,0,30s13.4,30,30,30s30-13.4,30-30S46.6,0,30,0z M30,4c5,0,9,4,9,9c0,5-4,9-9,9s-9-4-9-9
	C21,8,25,4,30,4z M35,30c0,2.8-2.2,5-5,5s-5-2.2-5-5s2.2-5,5-5S35,27.2,35,30z M13,39.4c-5,0-9-4-9-9s4-9,9-9s9,4,9,9
	S18,39.4,13,39.4z M30,56c-5,0-9-4-9-9c0-5,4-9,9-9s9,4,9,9C39,52,35,56,30,56z M47,39.4c-5,0-9-4-9-9s4-9,9-9s9,4,9,9
	S52,39.4,47,39.4z"/>
</svg>
