<?xml version="1.0" encoding="utf-8"?>
<!-- Generator: Adobe Illustrator 17.1.0, SVG Export Plug-In . SVG Version: 6.00 Build 0)  -->
<!DOCTYPE svg PUBLIC "-//W3C//DTD SVG 1.1//EN" "http://www.w3.org/Graphics/SVG/1.1/DTD/svg11.dtd">
<svg version="1.1" id="Layer_1" xmlns="http://www.w3.org/2000/svg" xmlns:xlink="http://www.w3.org/1999/xlink" x="0px" y="0px"
	 viewBox="0 0 13.5 25.1" enable-background="new 0 0 13.5 25.1" xml:space="preserve">
<path fill-rule="evenodd" clip-rule="evenodd" fill="#CCCCCC" stroke="#CCCCCC" stroke-miterlimit="10" d="M11.8,12.4
	c-2.2-2.1-4.3-4.2-6.4-6.2C3.8,4.6,2.2,3.1,0.7,1.4C0.4,1.1,0.4,0.5,0.2,0c0.5,0.1,1.1,0,1.4,0.3C5.5,4,9.2,7.8,13,11.5
	c0.7,0.7,0.7,1.3,0,2c-3.7,3.7-7.4,7.4-11.2,11.1c-0.3,0.3-1.1,0.6-1.4,0.4c-0.7-0.5-0.1-1.1,0.3-1.5C4.3,19.9,7.9,16.3,11.8,12.4z"
	/>
</svg>
