<?xml version="1.0" encoding="utf-8"?>
<!-- Generator: Adobe Illustrator 17.1.0, SVG Export Plug-In . SVG Version: 6.00 Build 0)  -->
<!DOCTYPE svg PUBLIC "-//W3C//DTD SVG 1.1//EN" "http://www.w3.org/Graphics/SVG/1.1/DTD/svg11.dtd">
<svg version="1.1" id="Layer_1" xmlns="http://www.w3.org/2000/svg" xmlns:xlink="http://www.w3.org/1999/xlink" x="0px" y="0px"
	 viewBox="0 0 13.5 25.1" enable-background="new 0 0 13.5 25.1" xml:space="preserve">
<g>
	<path fill-rule="evenodd" clip-rule="evenodd" d="M11.8,12.6c-2.2-2.1-4.3-4.2-6.4-6.2C3.8,4.8,2.2,3.2,0.7,1.6
		C0.4,1.2,0.4,0.6,0.2,0.2c0.5,0.1,1.1,0,1.4,0.3C5.5,4.2,9.2,8,13,11.7c0.7,0.7,0.7,1.3,0,2c-3.7,3.7-7.4,7.4-11.2,11.1
		c-0.3,0.3-1.1,0.6-1.4,0.4c-0.7-0.5-0.1-1.1,0.3-1.5C4.3,20.1,7.9,16.4,11.8,12.6z"/>
	<path d="M-0.5-0.5l0.8,0.2c0.1,0,0.3,0,0.4,0c0.4,0,0.9,0.1,1.2,0.4c2.3,2.2,4.6,4.5,6.8,6.8c1.5,1.5,3,3,4.5,4.4
		c0.4,0.4,0.7,0.9,0.7,1.3c0,0.6-0.4,1.1-0.7,1.4c-1.5,1.5-3,3-4.5,4.5c-2.2,2.2-4.5,4.5-6.7,6.7c-0.5,0.5-1.6,0.8-2,0.4
		c-0.3-0.2-0.5-0.5-0.5-0.9c0-0.5,0.4-0.9,0.7-1.2l0.1-0.1C3,20.7,5.7,18,8.4,15.3l2.7-2.7L9.4,11C8,9.6,6.5,8.2,5.1,6.7L4.6,6.3
		C3.2,4.9,1.7,3.4,0.3,1.9C0,1.6-0.1,1.1-0.2,0.7c0-0.1,0-0.3-0.1-0.4L-0.5-0.5z M0.6,24.8c0.2,0,0.6-0.2,0.7-0.3
		c2.2-2.2,4.5-4.4,6.7-6.7c1.5-1.5,3-3,4.5-4.5c0.3-0.3,0.4-0.5,0.4-0.6c0-0.2-0.1-0.4-0.4-0.6c-1.5-1.5-3-3-4.5-4.4
		C5.9,5.3,3.6,3.1,1.3,0.8C1.3,0.8,1,0.7,0.9,0.7c0,0.2,0.1,0.4,0.2,0.5c1.4,1.5,2.9,3,4.3,4.4L5.8,6c1.4,1.4,2.9,2.8,4.4,4.3
		l2.4,2.3L9.1,16C6.4,18.7,3.7,21.4,1,24l-0.1,0.1c-0.1,0.1-0.4,0.4-0.4,0.5l0,0C0.5,24.6,0.5,24.7,0.6,24.8z"/>
</g>
</svg>
