<?xml version="1.0" encoding="utf-8"?>
<!-- Generator: Adobe Illustrator 17.1.0, SVG Export Plug-In . SVG Version: 6.00 Build 0)  -->
<!DOCTYPE svg PUBLIC "-//W3C//DTD SVG 1.1//EN" "http://www.w3.org/Graphics/SVG/1.1/DTD/svg11.dtd">
<svg version="1.1" id="Layer_1" xmlns="http://www.w3.org/2000/svg" xmlns:xlink="http://www.w3.org/1999/xlink" x="0px" y="0px"
	 viewBox="0 0 60 60" enable-background="new 0 0 60 60" xml:space="preserve">
<path fill="#FFFFFF" d="M30,0C13.4,0,0,13.4,0,30s13.4,30,30,30s30-13.4,30-30S46.6,0,30,0z M50,30c0,1.1-0.7,2-1.5,2H32v16.5
	c0,0.8-0.9,1.5-2,1.5H30c-1.1,0-2-0.7-2-1.5V32H11.5c-0.8,0-1.5-0.9-1.5-2V30c0-1.1,0.7-2,1.5-2H28V11.5c0-0.8,0.9-1.5,2-1.5H30
	c1.1,0,2,0.7,2,1.5V28h16.5C49.3,28,50,28.9,50,30L50,30z"/>
</svg>
