<?xml version="1.0" encoding="utf-8"?>
<!-- Generator: Adobe Illustrator 16.0.0, SVG Export Plug-In . SVG Version: 6.00 Build 0)  -->
<!DOCTYPE svg PUBLIC "-//W3C//DTD SVG 1.1//EN" "http://www.w3.org/Graphics/SVG/1.1/DTD/svg11.dtd">
<svg version="1.1" id="Layer_1" xmlns="http://www.w3.org/2000/svg" xmlns:xlink="http://www.w3.org/1999/xlink" x="0px" y="0px"
	 width="510.667px" height="92.667px" viewBox="0 0 510.667 92.667" enable-background="new 0 0 510.667 92.667"
	 xml:space="preserve">
<g>
	<path fill="#13E2DB" d="M121.805,7.758c-24.244,0-44.401,28.342-45.248,29.544c-0.177,0.255-17.829,25.136-36.771,25.136
		c-12.217,0-22.16-9.945-22.16-22.166s9.943-22.16,22.16-22.16c5.155,0,10.109,1.909,15.496,5.997L31.22,48.347
		c-0.973,0.978-1.508,2.283-1.5,3.665c0.004,1.381,0.543,2.678,1.525,3.652c0.978,0.97,2.271,1.504,3.646,1.504
		c1.39,0,2.694-0.542,3.672-1.529l25.223-25.406c0.058-0.044,0.11-0.092,0.158-0.138l1.739-1.777l0.034-0.037
		c0.006-0.004,0.012-0.009,0.02-0.013l3.629-3.708c0.238-0.248,0.375-0.58,0.371-0.926c-0.006-0.344-0.145-0.672-0.391-0.916
		c-7.554-7.396-16.977-14.96-29.561-14.96c-17.927,0-32.511,14.585-32.511,32.514s14.584,32.512,32.511,32.512
		c24.254,0,44.404-28.335,45.248-29.541c0.178-0.252,17.854-25.131,36.771-25.131c12.222,0,22.164,9.939,22.164,22.16
		s-9.942,22.166-22.164,22.166c-8.839,0-15.947-5.769-22.317-12.005c-0.971-0.954-2.257-1.479-3.617-1.479
		c-1.405,0-2.721,0.553-3.698,1.558c-1.997,2.038-1.962,5.323,0.077,7.319c7.553,7.39,16.974,14.953,29.556,14.953
		c17.924,0,32.511-14.583,32.511-32.512S139.729,7.758,121.805,7.758"/>
	<g>
		<path fill="#13E2DB" d="M188.973,20.848c12.584,0,19.271,9.327,19.271,20.855c0,1.143-0.264,3.695-0.264,3.695h-32.472
			c0.44,9.768,7.392,14.695,15.312,14.695c7.656,0,13.2-5.191,13.2-5.191l3.52,6.248c0,0-6.6,6.336-17.247,6.336
			c-13.992,0-23.584-10.121-23.584-23.32C166.709,29.998,176.301,20.848,188.973,20.848z M199.533,38.975
			c-0.264-7.656-5.016-11.352-10.735-11.352c-6.512,0-11.792,4.048-13.023,11.352H199.533z"/>
		<path fill="#13E2DB" d="M212.558,21.902h9.063l10.823,30.096c0.881,2.464,1.408,6.072,1.496,6.072h0.177
			c0.088,0,0.703-3.608,1.584-6.072l10.823-30.096h8.976L239.045,66.43h-9.856L212.558,21.902z"/>
		<path fill="#13E2DB" d="M262.805,21.902h8.272v7.744c0,1.848-0.177,3.344-0.177,3.344h0.177
			c2.023-6.512,7.216-11.615,14.079-11.615c1.145,0,2.2,0.176,2.2,0.176v8.447c0,0-1.145-0.264-2.464-0.264
			c-5.456,0-10.472,3.872-12.496,10.473c-0.792,2.551-1.056,5.279-1.056,8.008V66.43h-8.536V21.902z"/>
		<path fill="#13E2DB" d="M293.164,75.67c0,0,2.464,1.848,5.192,1.848c3.432,0,6.336-2.465,8.008-6.512l2.199-5.104l-18.655-44
			h9.592l11.176,29.128c0.88,2.288,1.672,5.368,1.672,5.368h0.176c0,0,0.704-2.992,1.496-5.28l10.824-29.216h9.239l-20.855,52.535
			c-2.728,6.863-8.184,10.472-14.432,10.472c-5.016,0-8.623-2.728-8.623-2.728L293.164,75.67z"/>
		<path fill="#13E2DB" d="M341.828,54.902c0,0,5.016,5.191,12.76,5.191c3.695,0,7.392-1.936,7.392-5.544
			c0-8.184-22.879-6.512-22.879-21.031c0-8.096,7.216-12.671,16.104-12.671c9.768,0,14.343,4.928,14.343,4.928l-3.432,6.424
			c0,0-3.96-3.961-11-3.961c-3.695,0-7.304,1.584-7.304,5.457c0,8.008,22.88,6.247,22.88,20.854c0,7.392-6.336,12.937-16.104,12.937
			c-10.912,0-16.896-6.513-16.896-6.513L341.828,54.902z"/>
		<path fill="#13E2DB" d="M382.572,29.383h-5.809V22.52h6.072V9.672h8.271V22.52h10.736v6.863h-10.736v19.799
			c0,8.889,6.248,10.032,9.504,10.032c1.232,0,2.024-0.176,2.024-0.176v7.567c0,0-1.232,0.176-2.992,0.176
			c-5.72,0-17.071-1.76-17.071-16.631V29.383z"/>
		<path fill="#13E2DB" d="M431.41,20.848c12.584,0,19.271,9.327,19.271,20.855c0,1.143-0.264,3.695-0.264,3.695h-32.472
			c0.44,9.768,7.393,14.695,15.312,14.695c7.656,0,13.2-5.191,13.2-5.191l3.52,6.248c0,0-6.6,6.336-17.247,6.336
			c-13.992,0-23.584-10.121-23.584-23.32C409.146,29.998,418.738,20.848,431.41,20.848z M441.969,38.975
			c-0.264-7.656-5.016-11.352-10.735-11.352c-6.512,0-11.792,4.048-13.023,11.352H441.969z"/>
		<path fill="#13E2DB" d="M461.065,21.902h7.832v3.785c0,1.76-0.176,3.256-0.176,3.256h0.176c0,0,3.784-8.096,14.96-8.096
			c11.968,0,19.535,9.503,19.535,23.318c0,14.168-8.536,23.32-20.151,23.32c-9.768,0-13.64-7.305-13.64-7.305h-0.176
			c0,0,0.176,1.584,0.176,3.872v19.976h-8.536V21.902z M481.92,60.182c7.04,0,12.848-5.808,12.848-15.928
			c0-9.68-5.191-15.928-12.583-15.928c-6.688,0-12.848,4.664-12.848,16.016C469.337,52.262,473.737,60.182,481.92,60.182z"/>
	</g>
</g>
</svg>
