<?xml version="1.0" encoding="utf-8"?>
<!-- Generator: Adobe Illustrator 17.1.0, SVG Export Plug-In . SVG Version: 6.00 Build 0)  -->
<!DOCTYPE svg PUBLIC "-//W3C//DTD SVG 1.1//EN" "http://www.w3.org/Graphics/SVG/1.1/DTD/svg11.dtd">
<svg version="1.1" id="Layer_1" xmlns="http://www.w3.org/2000/svg" xmlns:xlink="http://www.w3.org/1999/xlink" x="0px" y="0px"
	 viewBox="0 0 168.7 35" enable-background="new 0 0 168.7 35" xml:space="preserve">
<path fill="#FFFFFF" d="M129.2,11c-0.4,0.3-0.6,0.9-0.2,1.5c0.4,0.6,0.9,0.8,1.3,0.8c0.3,0,1.1-0.3,1.3-0.7c0.3-0.6,0.3-1.6-0.3-2.5
	c-1.1-1.7-3.4-3.3-6.5-1.4c-1.1,0.7-2.6,2.3-2.5,4.1c0.1,0.9,0.4,1.3,0.7,2c1.4,2.3,2.4,2.7,4.2,4.5c0.4,0.4,0.8,0.9,1.3,1.7
	c0.8,1.3,0.4,2.3-0.7,3c-1.2,0.7-2.3,0.5-3.4-0.6c0.4,0.1,0.7,0.1,1-0.1c0.4-0.3,0.6-0.9,0.2-1.5c-0.4-0.6-0.9-0.8-1.3-0.8
	c-0.3,0-1.1,0.3-1.3,0.7c-0.1,0.1-0.1,0.2-0.1,0.3c0,0-0.1,0.1-0.1,0.2c-0.6,2.1-1.8,2.7-3.6,3.3l0-16.7c0,0-1.8,0.2-2.6,1.1
	c-0.7,0.7-0.8,1.8-0.8,2.8c0,1.9,0,7.5,0,7.5c0,2.3-1.4,3.6-2.7,3.6c-1.2,0-2.1-0.9-2.1-3.1l0-8.8c0,0-0.2-1.6-1.1-2.5
	c-0.8-0.7-2.4-0.6-2.4-0.6l0,12.3c0,4,2.2,5.4,4.9,5.4c1.2,0,2.5-0.6,3.4-2l0,2.2c-2.3,0.9-4.6,2.5-4.6,4.9c0,1.9,1.4,3.4,3.7,3.4
	c2.3,0,4.4-1.6,4.4-6l0-2.2c1.9-0.6,3.2-1.1,4.1-2.6c0,0,0,0,0,0.1c1.1,1.7,3.4,3.3,6.5,1.4c1.1-0.7,2.6-2.3,2.5-4.1
	c-0.1-1-0.3-1.3-0.7-2c-1.7-2.9-3.7-3.7-4.8-5c-0.3-0.4-0.6-0.7-0.9-1.2c-0.6-1.4-0.2-2.2,0.9-2.9c1.2-0.7,2.3-0.5,3.4,0.6
	C129.7,10.8,129.4,10.9,129.2,11 M115.6,30.5c0,1.6-0.3,2.7-1.5,2.7c-1,0-1.7-0.7-1.7-1.7c0-1.3,0.9-2.3,3.2-3.4L115.6,30.5z"/>
<path fill="#FFFFFF" d="M89.9,8.1c-1.2,0-1.8,0.9-1.8,1.8c0,0.9,0.6,1.9,1.7,1.9c0.2,0,0.7,0,0.9-0.3c0.2,1,0.3,2.4,0.3,3.7
	c0,4.1-1,8.7-3.9,8.7c-1.7,0-2-1.6-2-3.1l0-11.9c0,0-1.7-0.2-2.8,0.8c-0.8,0.8-0.7,2.2-0.7,2.2l0,8.4c-0.9,2.1-3.2,3.9-6.4,3.9
	c-3.7,0-5.5-2.4-5.5-5.8c0-3.4,1.7-6,4.8-6.7c-3.7-0.9-3.9-4.6-3.9-5.6c0-2.3,1.4-4.8,3.9-4.8c1.4,0,2.8,0.7,2.8,2.5
	c0,1.3-0.8,2.2-1.4,2.5c0.6,0.7,1.3,0.9,1.9,0.9c1.2,0,1.9-1.1,1.9-2.9C79.6,1,76.8,0,74.2,0c-4.6,0-6.9,3.4-6.9,6.4
	c0,2,1,3.9,3.2,5.3c-3,1.2-4.7,3.8-4.7,7.3c0,3.8,2.1,7.9,7.5,7.9c3.3,0,6.6-1.6,8.4-4.6c0.3,2.7,2.5,4.1,4.7,4.1
	c4.8,0,6.4-6.7,6.4-12C92.8,9.8,91.5,8.1,89.9,8.1"/>
<path fill="#FFFFFF" d="M103.2,8.6c-2,0-3,1.5-4.1,3.1c0,0-0.1-1.5-1-2.3c-1.2-0.9-2.5-0.7-2.5-0.7l0,14c0,0-0.2,1.8,0.7,2.5
	c1.2,1.1,2.8,0.9,2.8,0.9l0-12.9c0.8-0.8,1.8-1.7,2.9-1.7c1,0,1.2,0.9,2,0.9c0.6,0,1.6-0.4,1.6-1.8C105.5,9.6,104.7,8.6,103.2,8.6"
	/>
<path fill="#FFFFFF" d="M163.9,8.6c-1.2,0-2.8,0.3-4.1,2.8c0,0,0-1.7-1-2.8c-0.8-1-2.5-1.1-2.5-1.1v12.6c-1.2,2.7-3.3,3.7-5.5,3.7
	c-2,0-3.7-0.8-4-4.5c4.7-0.5,7.6-2.9,7.6-6.1c0-3.7-2.4-4.5-4.7-4.5c-5,0-6.7,5.9-6.6,9.8c0,0.9,0.1,1.7,0.2,2.4c-0.7,2-1.8,3-2.9,3
	c-1.6,0-1.6-2.1-1.6-3.1V10h2.7l0-1.2h-2.7l0-1.9c0,0-0.1-1.4-0.8-2.1C137,4.1,135.1,4,135.1,4l0,4.8h-1.2l0,1.2h1.2l0,11.4
	c0,2.3,0.8,5.1,4.1,5.1c1.3,0,3-0.4,4.5-3.6c1.1,2.6,3.3,3.6,5.5,3.6c2.7,0,5.3-1.8,6.9-4.2l0,7.9c0,0,0,2,0.8,2.9
	c1,1,2.7,1.1,2.7,1.1l0-9.7c1,1.6,2.2,1.9,3.1,1.9c2.9,0.1,5.7-2.4,5.8-5.2c0-0.4,0-5.2,0-6.2C168.7,12.2,168.1,8.6,163.9,8.6
	 M150.3,10.3c1.1,0,1.7,0.7,1.8,2.5c0,2.6-2.1,4.6-5.4,5.1C146.7,14.5,147.8,10.3,150.3,10.3 M165.1,20.7c0,1.7-1.6,3-3.1,2.9
	c-0.9,0-1.7-0.9-2.2-2.9l0-5.8c0.7-2.6,1.7-3.7,3.1-3.7c1.2,0,2.2,0.8,2.2,3.8C165.1,15.6,165.1,20.1,165.1,20.7"/>
<path fill="#FFFFFF" d="M45.8,0.9c-9.7,0-17.8,11.3-18.1,11.8c-0.1,0.1-7.1,10.1-14.7,10.1c-4.9,0-8.9-4-8.9-8.9s4-8.9,8.9-8.9
	c2.1,0,4,0.8,6.2,2.4l-9.6,9.7C9.2,17.6,9,18.1,9,18.6c0,0.6,0.2,1.1,0.6,1.5c0.4,0.4,0.9,0.6,1.5,0.6c0.6,0,1.1-0.2,1.5-0.6
	L22.6,9.9c0,0,0,0,0.1-0.1l0.7-0.7l0,0c0,0,0,0,0,0l1.5-1.5C24.9,7.6,25,7.4,25,7.3c0-0.1-0.1-0.3-0.2-0.4c-3-3-6.8-6-11.8-6
	c-7.2,0-13,5.8-13,13s5.8,13,13,13c9.7,0,17.8-11.3,18.1-11.8C31.2,15,38.2,5.1,45.8,5.1c4.9,0,8.9,4,8.9,8.9s-4,8.9-8.9,8.9
	c-3.5,0-6.4-2.3-8.9-4.8c-0.4-0.4-0.9-0.6-1.4-0.6c-0.6,0-1.1,0.2-1.5,0.6c-0.8,0.8-0.8,2.1,0,2.9c3,3,6.8,6,11.8,6
	c7.2,0,13-5.8,13-13S53,0.9,45.8,0.9"/>
</svg>
