<?xml version="1.0" encoding="utf-8"?>
<!-- Generator: Adobe Illustrator 17.1.0, SVG Export Plug-In . SVG Version: 6.00 Build 0)  -->
<!DOCTYPE svg PUBLIC "-//W3C//DTD SVG 1.1//EN" "http://www.w3.org/Graphics/SVG/1.1/DTD/svg11.dtd">
<svg version="1.1" id="Layer_1" xmlns="http://www.w3.org/2000/svg" xmlns:xlink="http://www.w3.org/1999/xlink" x="0px" y="0px"
	 viewBox="0 0 13.5 25.1" enable-background="new 0 0 13.5 25.1" xml:space="preserve">
<g>
	<path fill-rule="evenodd" clip-rule="evenodd" d="M1.7,12.6C3.9,14.8,6,16.8,8,18.8c1.6,1.6,3.2,3.2,4.8,4.8
		c0.3,0.3,0.3,0.9,0.4,1.4c-0.5-0.1-1.1,0-1.4-0.3C8,21,4.3,17.3,0.5,13.5c-0.7-0.7-0.7-1.3,0-2C4.3,7.9,8,4.1,11.7,0.4
		c0.3-0.3,1.1-0.6,1.4-0.4c0.7,0.5,0.1,1.1-0.3,1.5C9.2,5.2,5.5,8.8,1.7,12.6z"/>
	<path d="M13.9,25.7l-0.8-0.2c-0.1,0-0.3,0-0.4,0c-0.4,0-0.9-0.1-1.2-0.4c-2.3-2.2-4.6-4.5-6.8-6.8c-1.5-1.5-3-3-4.5-4.4
		c-0.4-0.4-0.7-0.9-0.7-1.3c0-0.6,0.4-1.1,0.7-1.4c1.5-1.5,3-3,4.5-4.5c2.2-2.2,4.5-4.5,6.7-6.7c0.5-0.5,1.6-0.8,2-0.4
		C13.8-0.1,14,0.2,14,0.5c0,0.5-0.4,0.9-0.7,1.2l-0.1,0.1C10.5,4.6,7.8,7.2,5.1,10l-2.7,2.7L4,14.2c1.5,1.4,2.9,2.8,4.4,4.3l0.4,0.4
		c1.4,1.4,2.9,2.9,4.4,4.4c0.3,0.3,0.4,0.8,0.5,1.2c0,0.1,0,0.3,0.1,0.4L13.9,25.7z M12.8,0.5c-0.2,0-0.6,0.2-0.7,0.3
		C9.8,3,7.6,5.2,5.4,7.5c-1.5,1.5-3,3-4.5,4.5c-0.3,0.3-0.4,0.5-0.4,0.6c0,0.2,0.1,0.4,0.4,0.6c1.5,1.5,3,3,4.5,4.4
		c2.3,2.3,4.5,4.5,6.8,6.8c0.1,0.1,0.3,0.1,0.5,0.1c0-0.2-0.1-0.4-0.2-0.5c-1.4-1.5-2.9-3-4.3-4.4l-0.4-0.4
		c-1.4-1.4-2.9-2.8-4.4-4.3L1,12.6l3.4-3.4c2.8-2.8,5.4-5.4,8.1-8.1l0.1-0.1C12.7,0.9,13,0.7,13,0.6l0,0C13,0.6,12.9,0.5,12.8,0.5z"
		/>
</g>
</svg>
