<?xml version="1.0" encoding="utf-8"?>
<!-- Generator: Adobe Illustrator 16.0.0, SVG Export Plug-In . SVG Version: 6.00 Build 0)  -->
<!DOCTYPE svg PUBLIC "-//W3C//DTD SVG 1.1//EN" "http://www.w3.org/Graphics/SVG/1.1/DTD/svg11.dtd">
<svg version="1.1" id="Layer_1" xmlns="http://www.w3.org/2000/svg" xmlns:xlink="http://www.w3.org/1999/xlink" x="0px" y="0px"
	 width="960px" height="560px" viewBox="0 0 960 560" enable-background="new 0 0 960 560" xml:space="preserve">
<path fill="#0FB3AD" d="M480,0C325.066,0,200,125.066,200,280s125.066,280,280,280s280-125.066,280-280C760,125.067,634.934,0,480,0
	z M666.667,280c0,10.267-6.534,18.666-14,18.666h-154v154.001c0,7.466-8.4,14-18.667,14l0,0c-10.267,0-18.667-6.534-18.667-14
	V298.666h-154c-7.467,0-14-8.399-14-18.666l0,0c0-10.267,6.533-18.667,14-18.667h154v-154c0-7.467,8.4-14,18.667-14l0,0
	c10.267,0,18.667,6.533,18.667,14v154h154C660.133,261.333,666.667,269.733,666.667,280L666.667,280z"/>
</svg>
