<?xml version="1.0" encoding="utf-8"?>
<!-- Generator: Adobe Illustrator 16.0.0, SVG Export Plug-In . SVG Version: 6.00 Build 0)  -->
<!DOCTYPE svg PUBLIC "-//W3C//DTD SVG 1.1//EN" "http://www.w3.org/Graphics/SVG/1.1/DTD/svg11.dtd">
<svg version="1.1" id="Layer_1" xmlns="http://www.w3.org/2000/svg" xmlns:xlink="http://www.w3.org/1999/xlink" x="0px" y="0px"
	 width="960px" height="560px" viewBox="0 0 960 560" enable-background="new 0 0 960 560" xml:space="preserve">
<path fill="#FF3046" d="M480,0C325.066,0,200,125.066,200,280s125.066,280,280,280s280-125.066,280-280C760,125.067,634.934,0,480,0
	z M480,37.333c46.667,0,84,37.333,84,84c0,46.667-37.333,84-84,84s-84-37.333-84-84C396,74.667,433.333,37.333,480,37.333z
	 M526.667,280c0,26.133-20.534,46.667-46.667,46.667S433.333,306.133,433.333,280c0-26.133,20.534-46.667,46.667-46.667
	S526.667,253.867,526.667,280z M321.333,367.733c-46.667,0-84-37.333-84-84s37.333-84,84-84c46.667,0,84,37.333,84,84
	S368,367.733,321.333,367.733z M480,522.667c-46.667,0-84-37.334-84-84c0-46.667,37.333-84,84-84s84,37.333,84,84
	C564,485.333,526.667,522.667,480,522.667z M638.667,367.733c-46.667,0-84-37.333-84-84s37.333-84,84-84c46.666,0,84,37.333,84,84
	S685.333,367.733,638.667,367.733z"/>
</svg>
