<?xml version="1.0" encoding="utf-8"?>
<!-- Generator: Adobe Illustrator 17.1.0, SVG Export Plug-In . SVG Version: 6.00 Build 0)  -->
<!DOCTYPE svg PUBLIC "-//W3C//DTD SVG 1.1//EN" "http://www.w3.org/Graphics/SVG/1.1/DTD/svg11.dtd">
<svg version="1.1" id="Layer_1" xmlns="http://www.w3.org/2000/svg" xmlns:xlink="http://www.w3.org/1999/xlink" x="0px" y="0px"
	 viewBox="0 0 426 92" enable-background="new 0 0 426 92" xml:space="preserve">
<rect x="-282.2" y="-341.7" display="none" fill="#13E2DB" width="1014" height="752"/>
<g>
	<path fill="#0FB3AD" d="M325.1,29.8c-1.1,0.7-1.5,2.2-0.5,3.8c0.9,1.4,2.2,1.9,3.3,1.9c0.8,0.1,2.6-0.9,3.3-1.8
		c0.9-1.5,0.8-3.9-0.7-6.2c-2.8-4.2-8.4-8.2-16.2-3.4c-2.9,1.8-6.4,5.8-6.2,10.3c0.3,2.2,0.9,3.3,1.8,4.9c3.6,5.8,6,6.8,10.4,11.2
		c1,1.1,2,2.4,3.2,4.2c2.1,3.2,1.1,5.7-1.7,7.4c-2.9,1.8-5.9,1.2-8.5-1.4c1,0.3,1.7,0.2,2.4-0.2c1.1-0.7,1.5-2.2,0.5-3.8
		c-0.9-1.4-2.2-1.9-3.3-1.9c-0.8-0.1-2.6,0.9-3.3,1.8c-0.1,0.2-0.2,0.5-0.3,0.8c-0.1,0.1-0.2,0.2-0.3,0.4c-1.6,5.2-4.5,6.7-9.1,8.2
		l-0.1-41.8c0,0-4.4,0.4-6.6,2.7c-1.7,1.8-2.1,4.6-2.1,7.1c0,4.7,0,18.7,0,18.7c0,5.8-3.6,9.1-6.8,9.1c-3.1,0-5.2-2.2-5.3-7.9
		l-0.1-21.9c0,0-0.4-3.9-2.8-6.2c-1.9-1.8-5.9-1.6-5.9-1.6l0.1,30.7c0,10,5.5,13.5,12.3,13.5c3.1,0,6.2-1.6,8.5-5l0,5.5
		c-5.7,2.4-11.4,6.2-11.4,12.2c0,4.7,3.5,8.6,9.3,8.6c5.9,0,10.9-4,10.9-14.9l0-5.6c4.8-1.4,8-2.9,10.3-6.5c0,0,0,0.1,0.1,0.1
		c2.8,4.2,8.4,8.2,16.2,3.4c2.9-1.8,6.4-5.8,6.2-10.3c-0.2-2.5-0.8-3.2-1.8-4.9c-4.3-7.2-9.4-9.3-12.1-12.5c-0.9-1-1.6-1.7-2.2-3
		c-1.5-3.5-0.5-5.5,2.3-7.3c2.9-1.8,5.9-1.2,8.5,1.4C326.5,29.3,325.8,29.4,325.1,29.8 M291.3,78.6c0,4.1-0.7,6.6-3.8,6.6
		c-2.6,0-4.2-1.7-4.2-4.4c0-3.2,2.3-5.8,8-8.4L291.3,78.6z"/>
	<path fill="#0FB3AD" d="M226.9,22.4c-2.9,0-4.4,2.2-4.4,4.5c0,2.2,1.4,4.6,4.2,4.6c0.5,0,1.7-0.1,2.3-0.7c0.5,2.5,0.8,5.9,0.8,9.2
		c0,10.3-2.6,21.8-9.7,21.8c-4.3,0-5.1-4-5.1-7.9l-0.1-29.7c0,0-4.2-0.6-6.9,2c-2.1,2.1-1.8,5.5-1.8,5.5l0,21
		c-2.3,5.3-7.9,9.8-16,9.8c-9.3,0-13.7-6-13.7-14.4c0-8.4,4.2-15,11.9-16.8c-9.2-2.2-9.8-11.4-9.8-13.9c0-5.8,3.5-12,9.8-12
		c3.4,0,7,1.8,7,6.3c0,3.3-1.9,5.6-3.6,6.3c1.6,1.7,3.2,2.4,4.6,2.4c2.9,0,4.8-2.7,4.8-7.2c0-8.6-7-11.1-13.4-11.1
		c-11.5,0-17.2,8.4-17.2,16.1c0,5,2.4,9.7,7.9,13.2c-7.4,3.1-11.8,9.6-11.7,18.2c0,9.4,5.3,19.8,18.6,19.8c8.2,0,16.6-4.1,21-11.4
		c0.8,6.7,6.2,10.4,11.8,10.4c12.1,0,16.1-16.8,16.1-30C234.3,26.7,231,22.4,226.9,22.4"/>
	<path fill="#0FB3AD" d="M260,23.8c-5,0-7.6,3.7-10.3,7.8c0,0-0.3-3.9-2.5-5.6c-2.9-2.3-6.2-1.7-6.2-1.7l0.1,34.9
		c0,0-0.4,4.4,1.8,6.4c3.1,2.8,7,2.4,7,2.4l-0.1-32.1c2-2.1,4.5-4.4,7.2-4.4c2.5,0,2.9,2.2,4.9,2.2c1.4,0,4-1.1,4-4.5
		C265.8,26.2,264,23.8,260,23.8"/>
	<path fill="#0FB3AD" d="M411.8,23.8c-2.9,0-7,0.7-10.4,7c0,0-0.1-4.2-2.5-7.1c-2.1-2.5-6.3-2.7-6.3-2.7v31.4
		c-3,6.7-8.2,9.4-13.7,9.4c-5,0-9.2-2.1-10.1-11.4c11.8-1.3,18.9-7.2,18.9-15.3c0-9.3-5.9-11.4-11.6-11.4
		c-12.6,0-16.6,14.7-16.6,24.5c0,2.2,0.2,4.2,0.5,6c-1.7,5-4.4,7.5-7.2,7.5c-3.9,0-4.1-5.2-4.1-7.9V27.3h6.7l0-3.1h-6.7l0-4.7
		c0,0-0.2-3.6-2.1-5.3c-2-1.8-6.7-2.1-6.7-2.1l0,12.1h-3l0,3.1h3l0.1,28.5c0,5.8,2,12.7,10.3,12.7c3.2,0,7.6-1,11.2-9.1
		c2.8,6.6,8.3,9.1,13.9,9.1c6.8,0,13.3-4.5,17.3-10.5l0,19.8c0,0-0.1,5,2,7.2c2.5,2.6,6.8,2.7,6.8,2.7l-0.1-24.3
		c2.5,4,5.6,4.7,7.8,4.7c7.3,0.2,14.3-6,14.5-13.1c0-0.9,0-13,0-15.5C423.8,32.7,422.4,23.8,411.8,23.8 M377.9,28.1
		c2.8,0,4.4,1.8,4.4,6.2c0,6.6-5.2,11.4-13.4,12.8C368.8,38.5,371.8,28.1,377.9,28.1 M414.8,53.9c-0.1,4.3-3.9,7.4-7.8,7.3
		c-2.3-0.1-4.3-2.3-5.6-7.2l0-14.4c1.6-6.6,4.2-9.2,7.7-9.2c3,0,5.6,1.9,5.6,9.4C414.8,41.1,414.8,52.4,414.8,53.9"/>
	<path fill="#0FB3AD" d="M116.7,4.6c-24.2,0-44.4,28.3-45.2,29.5c-0.2,0.3-17.8,25.1-36.8,25.1c-12.2,0-22.2-9.9-22.2-22.2
		s9.9-22.2,22.2-22.2c5.2,0,10.1,1.9,15.5,6L26.1,45.2c-1,1-1.5,2.3-1.5,3.7c0,1.4,0.5,2.7,1.5,3.7c1,1,2.3,1.5,3.6,1.5
		c1.4,0,2.7-0.5,3.7-1.5L58.7,27c0.1,0,0.1-0.1,0.2-0.1l1.7-1.8l0,0c0,0,0,0,0,0l3.6-3.7c0.2-0.2,0.4-0.6,0.4-0.9
		c0-0.3-0.1-0.7-0.4-0.9c-7.6-7.4-17-15-29.6-15C16.7,4.6,2.1,19.2,2.1,37.1s14.6,32.5,32.5,32.5c24.3,0,44.4-28.3,45.2-29.5
		c0.2-0.3,17.9-25.1,36.8-25.1c12.2,0,22.2,9.9,22.2,22.2s-9.9,22.2-22.2,22.2c-8.8,0-15.9-5.8-22.3-12c-1-1-2.3-1.5-3.6-1.5
		c-1.4,0-2.7,0.6-3.7,1.6c-2,2-2,5.3,0.1,7.3c7.6,7.4,17,15,29.6,15c17.9,0,32.5-14.6,32.5-32.5S134.6,4.6,116.7,4.6"/>
</g>
</svg>
